<svg xmlns="http://www.w3.org/2000/svg" width="1415" height="1469" fill="none" viewBox="0 0 1415 1469"><path fill="#000" d="M739.882 997.35C739.882 1053.81 680.755 1073.27 572.812 1073.27C464.869 1073.27 322.113 976.949 322.113 920.486C322.113 864.024 464.869 868.805 572.812 868.805C680.755 868.805 739.882 940.887 739.882 997.35Z"/><path fill="#000" d="M1057.11 1319.17C1057.11 1405.94 997.686 1468.2 899.811 1468.2C801.936 1468.2 738.567 1324.57 738.567 1237.8C738.567 1151.03 801.936 1118.28 899.811 1118.28C997.686 1118.28 1057.11 1232.4 1057.11 1319.17Z"/><path fill="#000" d="M1414.36 948.853C1414.36 1005.32 1305.44 1098.07 1197.49 1098.07C1089.55 1098.07 1016.7 1073.16 1016.7 1016.7C1016.7 960.234 1105.34 896.984 1213.28 896.984C1321.22 896.984 1414.36 892.391 1414.36 948.853Z"/><path fill="#000" d="M643.222 103.793C688.412 139.599 744.177 103.451 766.411 80.9013C781.919 31.3532 830.388 148.938 852.684 213.923C879.181 264.939 944.31 377.104 992.855 417.634C1041.4 458.164 1062.31 529.303 1066.7 559.807C1090.87 609.335 1152.79 722.155 1207.08 777.216C1261.37 832.276 1258.11 878.359 1249.69 894.518C1215.11 923.483 1141.53 984.784 1123.85 998.273C1106.18 1011.76 1090.15 973.79 1084.34 953.117C1076.05 909.937 1045.4 812.827 989.149 769.831C932.9 726.836 926.127 675.702 929.772 655.509C920.44 644.863 894.369 607.143 864.746 541.428C835.122 475.712 727.874 305.018 677.953 227.885C647.547 171.602 598.032 67.9874 643.222 103.793Z"/><path fill="#3C3729" d="M569.931 617.386C571.933 592.438 563.916 552.01 559.656 534.915C559.656 525.146 561.711 509.29 569.931 524.019C578.151 538.747 585.299 592.4 587.846 617.386C581.04 627.781 567.929 642.334 569.931 617.386Z"/><path fill="#000" d="M26.8891 418.676C69.2777 434.203 118.25 389.49 137.437 365.193C149.416 321.356 198.168 400.965 221.047 446.25C247.148 479.224 310.755 549.753 356.376 568.075C401.998 586.397 423.878 636.971 429.115 659.968C453.052 692.425 513.782 764.394 565.205 792.624C616.629 820.854 615.592 858.429 608.646 873.687C578.547 906.622 514.49 976.437 499.055 992.224C483.621 1008.01 467.534 982.41 461.419 967.637C452.118 935.679 420.343 867.246 367.646 849.17C314.95 831.094 306.697 792.377 309.157 775.278C300.269 769.486 275.106 746.961 245.564 703.195C216.022 659.429 111.863 554.426 63.4767 507.395C33.6189 471.353 -15.4995 403.15 26.8891 418.676Z"/><path fill="#FFCC4D" d="M621.118 512.013C584.208 570.835 495.466 546.338 469.172 487.582C449.913 444.545 462.97 329.389 473.495 268.455L559.003 396.059L584.562 337.049C611.436 350.204 665.457 441.351 621.118 512.013Z"/><path fill="#E7973A" d="M596.028 506.528C576.929 537.065 531.011 524.348 517.405 493.844C507.44 471.502 514.196 411.719 519.642 380.085L563.887 446.331L577.112 415.696C591.018 422.526 618.97 469.844 596.028 506.528Z"/><path fill="#3C3729" d="M514.256 554.885C534.922 580.796 600.937 585.862 631.362 585.156C669.639 573.336 651.871 627.648 638.202 656.282C635.178 681.531 634.42 739.159 655.577 767.685C676.735 796.211 658.775 826.48 647.15 838.048C642.887 862.083 639.048 918.943 657.799 954.105C676.551 989.267 650.516 1003.7 635.155 1006.52C590.913 1005.57 496.942 1003.44 474.996 1002.52C453.05 1001.59 458.463 983.937 463.913 975.225C478.582 958.206 501.293 916.239 474.777 884.514C448.262 852.79 468.247 833.576 481.554 827.935C478.926 821.495 475.61 800.832 483.367 769.697C491.125 738.561 485.311 648.357 481.434 607.147C483.764 578.93 493.591 528.975 514.256 554.885Z"/><path fill="#3C3729" d="M924.744 745.929C926.746 720.981 918.729 680.554 914.469 663.458C914.469 653.689 916.524 637.834 924.744 652.562C932.964 667.291 940.112 720.944 942.659 745.929C935.853 756.324 922.742 770.877 924.744 745.929Z"/><path fill="#FFCC4D" d="M975.931 640.557C939.021 699.379 850.279 674.882 823.985 616.126C804.726 573.09 817.784 457.933 828.308 396.999L913.816 524.604L939.375 465.594C966.249 478.749 1020.27 569.895 975.931 640.557Z"/><path fill="#E7973A" d="M950.841 635.072C931.742 665.609 885.824 652.892 872.218 622.389C862.253 600.047 869.009 540.264 874.455 508.63L918.7 574.875L931.925 544.241C945.831 551.07 973.783 598.388 950.841 635.072Z"/><path fill="#3C3729" d="M990.176 682.815C966.576 715.884 900.427 711.876 870.302 705.738C833.702 682.59 844.885 762.231 855.052 804.945C855.052 841.083 848.952 922.528 824.552 959.204C800.152 995.881 814.386 1041.63 824.552 1059.91C825.927 1094.55 822.977 1175.43 800.177 1221.88C777.378 1268.32 801.511 1293.09 816.427 1299.66C860.469 1305.8 954.026 1318.68 975.926 1321.08C997.826 1323.49 994.551 1297.66 990.176 1284.45C977.635 1257.95 960.076 1194.9 990.176 1154.61C1020.28 1114.33 1002.72 1083.84 990.176 1073.63C993.551 1064.99 999.301 1036.39 995.301 991.146C991.301 945.902 1007.8 819.601 1016.55 762.106C1017.59 721.897 1013.78 649.746 990.176 682.815Z"/><path fill="#3C3729" d="M1203.31 546.348C1205.31 521.4 1197.3 480.972 1193.04 463.877C1193.04 454.108 1195.09 438.252 1203.31 452.981C1211.53 467.709 1218.68 521.362 1221.23 546.348C1214.42 556.743 1201.31 571.296 1203.31 546.348Z"/><path fill="#FFCC4D" d="M1254.5 440.975C1217.59 499.797 1128.85 475.3 1102.55 416.544C1083.29 373.508 1096.35 258.351 1106.88 197.417L1192.38 325.022L1217.94 266.012C1244.82 279.167 1298.84 370.313 1254.5 440.975Z"/><path fill="#E7973A" d="M1229.41 435.49C1210.31 466.027 1164.39 453.31 1150.79 422.807C1140.82 400.465 1147.58 340.681 1153.02 309.048L1197.27 375.293L1210.49 344.659C1224.4 351.488 1252.35 398.806 1229.41 435.49Z"/><path fill="#3C3729" d="M1147.49 485.04C1167.6 515.626 1233.68 520.125 1264.21 518.552C1302.88 503.458 1283.76 569.031 1269.37 603.704C1265.73 634.062 1263.6 703.206 1284.13 736.917C1304.67 770.629 1285.94 807.365 1274 821.519C1269.15 850.451 1263.94 918.746 1281.91 960.476C1299.87 1002.2 1284 1041.8 1268.53 1045.55C1224.18 1045.47 1119.41 1023.5 1097.42 1022.91C1075.44 1022.33 1081.29 1001.02 1086.96 990.442C1102.08 969.678 1125.86 918.795 1100.02 881.375C1074.19 843.954 1094.69 820.43 1108.17 813.346C1105.69 805.684 1102.86 780.977 1111.38 743.445C1119.91 705.913 1116.23 597.851 1113.33 548.512C1116.34 514.61 1127.39 454.454 1147.49 485.04Z"/><mask id="mask0" width="289" height="571" x="1056" y="474" mask-type="alpha" maskUnits="userSpaceOnUse"><path fill="#3C3729" d="M1147.49 485.039C1167.6 515.625 1233.68 520.125 1264.21 518.551C1302.88 503.458 1283.76 569.031 1269.37 603.704C1265.73 634.061 1263.6 703.205 1284.13 736.917C1304.67 770.629 1285.94 807.365 1274 821.519C1269.15 850.45 1263.94 918.746 1281.91 960.475C1299.87 1002.2 1264.65 1019.16 1249.17 1022.91C1204.83 1022.83 1119.41 1023.5 1097.42 1022.91C1075.44 1022.33 1081.29 1001.02 1086.96 990.441C1102.08 969.677 1125.86 918.794 1100.02 881.374C1074.19 843.954 1094.69 820.43 1108.17 813.345C1105.69 805.683 1102.86 780.976 1111.38 743.444C1119.91 705.912 1116.23 597.85 1113.33 548.511C1116.34 514.61 1127.39 454.453 1147.49 485.039Z"/></mask><g mask="url(#mask0)"><path fill="#FFCC4D" d="M1257.63 504.166L1071.58 1153.98L1041.89 929.632L1104.66 448.868L1257.63 504.166Z"/></g><mask id="mask1" width="279" height="480" x="434" y="545" mask-type="alpha" maskUnits="userSpaceOnUse"><path fill="#3C3729" d="M514.256 554.885C534.921 580.796 600.937 585.861 631.362 585.156C669.639 573.335 651.871 627.648 638.202 656.282C635.178 681.53 634.419 739.158 655.577 767.685C676.735 796.211 658.775 826.479 647.15 838.048C642.886 862.082 639.047 918.942 657.799 954.104C676.55 989.267 650.516 1003.7 635.155 1006.52C590.913 1005.57 496.941 1003.44 474.996 1002.52C453.05 1001.59 458.463 983.937 463.913 975.224C478.582 958.206 501.292 916.238 474.777 884.514C448.262 852.789 468.247 833.576 481.553 827.935C478.926 821.495 475.609 800.831 483.367 769.696C491.125 738.561 485.31 648.356 481.434 607.146C483.764 578.93 493.591 528.974 514.256 554.885Z"/></mask><g mask="url(#mask1)"><path fill="#FFCC4D" d="M557.777 557.68L654.186 1039.53L754.729 917.942L683.503 578.54L557.777 557.68Z"/></g></svg>