<svg width="829" height="995" viewBox="0 0 829 995" fill="none" xmlns="http://www.w3.org/2000/svg">
<path d="M0.735419 869.543L569.735 326.043C728.935 240.843 737.069 290.543 721.235 326.043C595.069 533.377 306.835 955.943 163.235 987.543C19.6354 1019.14 -4.93125 922.043 0.735419 869.543Z" fill="#3C3729"/>
<path d="M150.132 401.975L753.905 712.512C863.081 815.407 820.354 833.607 785.344 829.845C573.881 781.778 136.443 659.732 78.4043 556.083C20.3652 452.435 102.04 410.158 150.132 401.975Z" fill="#3C3729"/>
<path d="M555.523 648C457.322 804.5 221.219 739.325 151.262 583C100.023 468.5 134.762 162.118 162.762 0L390.262 339.5L458.262 182.5C529.762 217.5 673.489 460 555.523 648Z" fill="#FFCC4D"/>
<path d="M488.768 633.407C437.956 714.653 315.787 680.818 279.589 599.662C253.076 540.22 271.051 381.163 285.54 297L403.257 473.25L438.442 391.744C475.439 409.914 549.809 535.807 488.768 633.407Z" fill="#E7973A"/>
</svg>
