<svg xmlns="http://www.w3.org/2000/svg" width="1646" height="995" fill="none" viewBox="0 0 1646 995"><path fill="#3C3729" d="M817.735 869.543L1386.74 326.043C1545.94 240.843 1554.07 290.543 1538.24 326.043C1412.07 533.377 1123.84 955.943 980.235 987.543C836.635 1019.14 812.069 922.043 817.735 869.543Z"/><path fill="#3C3729" d="M967.132 401.975L1570.91 712.512C1680.08 815.407 1637.35 833.607 1602.34 829.845C1390.88 781.778 953.443 659.732 895.404 556.083C837.365 452.435 919.04 410.158 967.132 401.975Z"/><path fill="#FFCC4D" d="M1372.52 648C1274.32 804.5 1038.22 739.325 968.262 583C917.023 468.5 951.762 162.118 979.762 0L1207.26 339.5L1275.26 182.5C1346.76 217.5 1490.49 460 1372.52 648Z"/><path fill="#E7973A" d="M1305.77 633.407C1254.96 714.653 1132.79 680.818 1096.59 599.662C1070.08 540.22 1088.05 381.163 1102.54 297L1220.26 473.25L1255.44 391.744C1292.44 409.914 1366.81 535.807 1305.77 633.407Z"/><circle cx="363.002" cy="386.154" r="83" fill="#3C3729" transform="rotate(-28.6939 363.002 386.154)"/><path fill="#3C3729" d="M554.978 325.176C440.77 269.47 347.65 297.094 315.366 317.869L405.872 457.309C452.551 420.603 550.019 345.889 566.458 340.68C582.897 335.471 565.654 328.174 554.978 325.176Z"/><path fill="#3C3729" d="M199.248 483.546C209.354 423.124 254.937 383.276 285.033 375.115C312.72 373.396 352.682 374.911 291.039 394.725C229.395 414.538 236.491 489.978 213.176 522.813C204.635 534.842 119.526 605.877 68.9227 606.475C18.319 607.072 48.0257 599.198 69.2046 595.185C114.053 585.955 188.142 549.94 199.248 483.546Z"/><ellipse cx="481.447" cy="309.924" fill="#3C3729" rx="40.5" ry="41" transform="rotate(-28.6939 481.447 309.924)"/><mask id="mask0" width="587" height="415" x="0" y="213" mask-type="alpha" maskUnits="userSpaceOnUse"><circle cx="363.002" cy="386.154" r="83" fill="#3C3729" transform="rotate(-28.6939 363.002 386.154)"/><path fill="#3C3729" d="M554.978 325.176C440.77 269.47 347.65 297.094 315.366 317.869L405.872 457.309C452.551 420.603 550.019 345.889 566.458 340.68C582.897 335.471 565.654 328.174 554.978 325.176Z"/><path fill="#3C3729" d="M199.248 483.546C209.354 423.124 254.937 383.276 285.033 375.115C312.72 373.396 352.682 374.911 291.039 394.725C229.395 414.538 236.491 489.978 213.176 522.813C204.635 534.842 119.526 605.877 68.9227 606.475C18.319 607.072 48.0257 599.198 69.2046 595.185C114.053 585.955 188.142 549.94 199.248 483.546Z"/><ellipse cx="481.447" cy="309.924" fill="#3C3729" rx="40.5" ry="41" transform="rotate(-28.6939 481.447 309.924)"/></mask><g mask="url(#mask0)"><path fill="#FFCC4D" d="M518 267L355 496.5L559.5 464L634 331L518 267Z"/></g><path fill="#3C3729" d="M652.5 244C651.3 221.6 626.333 223 614 226.5C583.2 240.1 609.5 253.167 626.5 258C635.667 262.667 653.7 266.4 652.5 244Z"/><path fill="#3C3729" d="M704.395 311.198C695.409 290.645 672.522 300.719 662.202 308.325C638.136 331.871 667.349 334.875 684.964 333.433C695.185 334.586 713.382 331.752 704.395 311.198Z"/><path fill="#3C3729" d="M795.217 196.283C786.231 175.73 763.345 185.804 753.024 193.41C728.958 216.956 758.171 219.96 775.786 218.519C786.007 219.671 804.204 216.837 795.217 196.283Z"/></svg>