<svg width="1567" height="1139" viewBox="0 0 1567 1139" fill="none" xmlns="http://www.w3.org/2000/svg">
<path d="M696.063 798.04C1258.43 1235.57 1425.93 892.885 1439.38 666.851C1446.75 366.572 991.242 267.021 762.566 254.781C506.078 253.562 133.694 360.509 696.063 798.04Z" fill="#FFCC4D" fill-opacity="0.44"/>
<ellipse rx="112.874" ry="73.6878" transform="matrix(0.967241 0.25386 0.479861 0.877345 555.257 484.293)" fill="black"/>
<path d="M831.759 582.668C690.983 476.542 557.368 427.813 508.157 416.714L595.145 550.131C668.018 562.728 819.682 590.03 843.356 598.461C867.029 606.892 845.488 591.445 831.759 582.668Z" fill="black"/>
<path d="M307.703 423.862C337.011 399.434 409.205 409.663 452.192 425.809C490.244 443.658 544.138 471.489 455.293 440.022C366.449 408.555 356.636 452.397 316.499 453.61C301.795 454.054 167.869 433.212 98.9749 399.272C30.0812 365.332 72.465 381.363 102.269 393.621C165.571 419.198 275.498 450.705 307.703 423.862Z" fill="black"/>
<ellipse rx="55.077" ry="36.4" transform="matrix(0.967241 0.25386 0.479861 0.877345 735.807 525.008)" fill="black"/>
<circle cx="725.867" cy="569.009" r="55.6406" transform="rotate(-2.20923 725.867 569.009)" fill="#3C3729"/>
<path d="M859.286 589.814C807.413 522.245 743.281 510.982 717.699 513.796L730.318 624.519C769.299 616.45 850.118 600.759 861.539 602.548C872.96 604.337 864.795 594.804 859.286 589.814Z" fill="#3C3729"/>
<path d="M598.497 578.49C622.624 545.257 661.887 534.975 682.385 539.076C699.512 546.321 723.037 559.177 680.126 552.637C637.216 546.097 618.92 593.484 595.115 606.215C586.394 610.879 514.091 628.057 483.549 613.288C453.007 598.518 473.186 602.674 487.093 606.598C516.763 614.468 571.984 615.008 598.497 578.49Z" fill="#3C3729"/>
<ellipse cx="819.726" cy="558.679" rx="27.1499" ry="27.4851" transform="rotate(-2.20923 819.726 558.679)" fill="#3C3729"/>
<path d="M1383.88 587.779C1331.61 468.225 1198.48 526.825 1138.45 571.069C998.464 708.028 1168.39 725.5 1270.85 717.116C1330.3 723.818 1436.15 707.334 1383.88 587.779Z" fill="black"/>
<path d="M1189.44 605.017C1191.96 573.63 1181.87 522.767 1176.51 501.259C1176.51 488.969 1179.1 469.021 1189.44 487.551C1199.78 506.081 1208.77 573.583 1211.98 605.017C1203.42 618.095 1186.92 636.405 1189.44 605.017Z" fill="#3C3729"/>
<path d="M1122.09 564.352C1233.87 589.862 1155.73 571.091 1260.4 547.761C1365.08 524.43 1302.69 642.147 1286.14 644.013C1183.6 643.581 1122.43 664.917 1084.98 623.048C1047.53 581.18 1010.3 538.841 1122.09 564.352Z" fill="#3C3729"/>
<path d="M1264.71 499.4C1218.28 573.405 1106.63 542.586 1073.55 468.664C1049.32 414.519 1065.75 269.639 1078.99 192.977L1186.57 353.518L1218.72 279.277C1252.53 295.828 1320.5 410.5 1264.71 499.4Z" fill="#FFCC4D"/>
<path d="M1233.15 492.5C1209.12 530.919 1151.35 514.919 1134.23 476.543C1121.7 448.434 1130.2 373.22 1137.05 333.421L1192.71 416.766L1209.35 378.223C1226.85 386.816 1262.01 446.347 1233.15 492.5Z" fill="#E7973A"/>
<path d="M915.829 530.376C915.261 519.783 903.455 520.445 897.623 522.1C883.059 528.531 895.495 534.71 903.534 536.996C907.869 539.203 916.396 540.968 915.829 530.376Z" fill="#3C3729"/>
<path d="M951.054 572.83C946.805 563.111 935.982 567.875 931.102 571.472C919.722 582.606 933.536 584.026 941.865 583.345C946.699 583.889 955.303 582.549 951.054 572.83Z" fill="#3C3729"/>
<path d="M980.372 541.62C976.123 531.901 965.301 536.665 960.42 540.262C949.04 551.396 962.854 552.816 971.184 552.135C976.017 552.68 984.622 551.339 980.372 541.62Z" fill="#3C3729"/>
<mask id="mask0" mask-type="alpha" maskUnits="userSpaceOnUse" x="465" y="508" width="404" height="119">
<circle cx="725.867" cy="569.009" r="55.6406" transform="rotate(-2.20923 725.867 569.009)" fill="#3C3729"/>
<path d="M859.286 589.814C807.413 522.245 743.281 510.982 717.699 513.796L730.318 624.519C769.299 616.45 850.118 600.759 861.539 602.548C872.96 604.337 864.795 594.804 859.286 589.814Z" fill="#3C3729"/>
<path d="M598.497 578.49C622.624 545.257 661.887 534.975 682.385 539.076C699.512 546.321 723.037 559.177 680.126 552.637C637.216 546.097 618.92 593.484 595.115 606.215C586.394 610.879 514.091 628.057 483.549 613.288C453.007 598.518 473.186 602.674 487.093 606.598C516.763 614.468 571.984 615.008 598.497 578.49Z" fill="#3C3729"/>
<ellipse cx="819.726" cy="558.679" rx="27.1499" ry="27.4851" transform="rotate(-2.20923 819.726 558.679)" fill="#3C3729"/>
</mask>
<g mask="url(#mask0)">
<path d="M631.665 620.432C834.329 502.438 925.685 541.905 946.03 576.387L945.814 698.203C756.655 721.443 429.002 738.426 631.665 620.432Z" fill="#FFCC4D"/>
</g>
</svg>
