<svg xmlns="http://www.w3.org/2000/svg" width="575" height="709" fill="none" viewBox="0 0 575 709"><path fill="#FFCC4D" d="M238.076 46.1002C230.284 46.1002 222.709 47.8316 216 51.0781C216.216 49.5631 216.216 47.8316 216.216 46.1002C216.216 20.7775 198.036 0 175.743 0C163.623 0 152.801 6.06011 145.443 15.3667C137.218 12.3367 127.695 10.3888 117.523 10.3888C88.5209 10.3888 64.9298 25.5391 64.9298 44.3687C64.9298 59.519 80.5129 72.505 101.94 76.8336C93.2825 82.028 87.8717 90.036 87.8717 98.6933C87.8717 112.112 100.208 123.367 117.307 127.046C116.224 131.808 115.575 137.002 115.575 142.196C115.575 164.489 125.747 183.968 141.114 194.357C140.898 196.737 140.898 199.118 140.898 201.499C140.898 229.852 149.555 253.01 160.377 253.01C171.198 253.01 179.856 230.068 179.856 201.499C179.856 200.85 179.856 200.417 179.856 199.767C199.984 192.842 215.134 171.198 216.216 145.226C222.926 148.256 230.284 149.988 238.076 149.988C266.862 149.988 290.236 126.613 290.236 97.8276C290.236 69.2585 266.862 46.1002 238.076 46.1002Z"/><path fill="#fff" d="M293.945 173.092C310.611 144.307 352.166 144.307 368.831 173.092L656.903 671.97C673.568 700.755 652.791 736.899 619.46 736.899H43.3162C9.98558 736.899 -10.792 700.755 5.87336 671.97L293.945 173.092Z"/><path fill="#fff" d="M172.064 238.076C195.439 238.076 214.268 256.906 214.268 280.28V448.881C214.268 472.256 195.439 491.086 172.064 491.086C148.689 491.086 129.86 472.256 129.86 448.881V280.28C130.076 256.906 148.906 238.076 172.064 238.076Z"/><path fill="#FFCC4D" d="M328.761 519.439C290.669 519.439 259.719 550.388 259.719 588.481V740.2H397.587V588.481C397.803 550.388 366.854 519.439 328.761 519.439Z"/></svg>