<svg xmlns="http://www.w3.org/2000/svg" width="48" height="73" fill="none" viewBox="0 0 48 73"><path fill="#fff" fill-rule="evenodd" d="M47.0773 23.5386C47.0773 23.593 47.0771 23.6474 47.0767 23.7017V54.5L40.639 59.493V23.2408C40.639 12.6179 32.1281 6.98742 24.0517 6.77497C19.99 6.66813 15.8135 7.89253 12.6166 10.6688C9.36935 13.4888 7.33301 17.7393 7.33301 23.2408C7.33301 28.7152 9.29686 32.7398 12.3202 35.2592C15.2814 37.7269 19.0345 38.5589 22.3063 38.1211C25.5082 37.6927 28.7795 35.9342 30.0227 32.6261C31.305 29.214 30.0127 25.318 26.5771 21.5552C25.6461 20.5355 24.0649 20.4637 23.0452 21.3946C22.0256 22.3256 21.9537 23.9069 22.8847 24.9265C25.7062 28.0168 25.6802 29.9681 25.3423 30.8671C24.9654 31.87 23.7301 32.8861 21.6432 33.1653C19.6263 33.4352 17.3085 32.9077 15.5211 31.4181C13.7957 29.9803 12.333 27.4499 12.333 23.2408C12.333 19.0589 13.8349 16.233 15.895 14.444C18.0055 12.6112 20.9055 11.6939 23.9202 11.7732C29.9968 11.9331 35.639 15.9861 35.639 23.2408V63.371L23.5381 72.7562V47.0773C10.5383 47.077 0 36.5385 0 23.5386C0 10.5386 10.5386 0 23.5386 0C36.5387 0 47.0773 10.5386 47.0773 23.5386Z" clip-rule="evenodd"/></svg>