<svg xmlns="http://www.w3.org/2000/svg" width="120" height="39" fill="none" viewBox="0 0 120 39"><path fill="#201A0A" fill-rule="evenodd" d="M25.2351 12.6176C25.2351 12.6481 25.235 12.6785 25.2348 12.709V29.214L21.784 31.8904V12.458C21.784 6.76366 17.2219 3.74553 12.8926 3.63165C10.7154 3.57438 8.47662 4.2307 6.76297 5.71888C5.02232 7.2305 3.93077 9.50894 3.93077 12.458C3.93077 15.3924 4.98347 17.5498 6.60406 18.9003C8.19139 20.223 10.2032 20.669 11.957 20.4343C13.6734 20.2047 15.4269 19.262 16.0933 17.4888C16.7806 15.6598 16.0879 13.5714 14.2463 11.5544C13.7473 11.0078 12.8997 10.9693 12.3531 11.4683C11.8065 11.9674 11.768 12.815 12.267 13.3615C13.7795 15.018 13.7655 16.064 13.5844 16.5459C13.3824 17.0835 12.7202 17.6282 11.6016 17.7778C10.5204 17.9225 9.27802 17.6397 8.31987 16.8413C7.39499 16.0705 6.61095 14.7142 6.61095 12.458C6.61095 10.2163 7.41603 8.70151 8.52033 7.74251C9.65161 6.76007 11.2061 6.2684 12.8221 6.31091C16.0794 6.39659 19.1038 8.56914 19.1038 12.458V33.9691L12.6172 39V25.2351C5.6489 25.235 0 19.586 0 12.6176C0 5.64908 5.64908 0 12.6176 0C19.5861 0 25.2351 5.64908 25.2351 12.6176Z" clip-rule="evenodd"/><path fill="#201A0A" d="M36.1211 22.7891H37.9609L40.5977 11.457H38.3242L37.8203 13.6367H33.7891L35.043 8.23438H51.7422L50.5 13.6367H46.4688L46.9727 11.457H44.6992L42.0625 22.7891H44.043L43.293 26H35.3828L36.1211 22.7891Z"/><path fill="#201A0A" d="M55.5977 25.0742C55.3086 25.3789 54.9258 25.6367 54.4492 25.8477C53.9414 26.0742 53.3438 26.1875 52.6562 26.1875C52.0234 26.1875 51.4023 26.0742 50.793 25.8477C50.1836 25.6211 49.6406 25.2852 49.1641 24.8398C48.6953 24.3867 48.3125 23.8281 48.0156 23.1641C47.7266 22.5 47.582 21.7344 47.582 20.8672C47.582 20.1172 47.6797 19.418 47.875 18.7695C48.0703 18.1133 48.3398 17.5156 48.6836 16.9766C49.0273 16.4297 49.4336 15.9453 49.9023 15.5234C50.3789 15.1016 50.8945 14.7461 51.4492 14.457C52.0117 14.168 52.6016 13.9492 53.2188 13.8008C53.8438 13.6445 54.4766 13.5664 55.1172 13.5664C55.4766 13.5664 55.7812 13.5898 56.0312 13.6367C56.2891 13.6836 56.582 13.7539 56.9102 13.8477C57.2383 13.9414 57.6211 14.1445 58.0586 14.457L58.1992 13.8594H62.1836L60.1094 22.7891H62.3477L61.5977 26H55.3867L55.5977 25.0742ZM56.0312 21.6406L56.5469 20.9961L57.1328 18.4648C57.0391 18.2852 56.918 18.1133 56.7695 17.9492C56.6211 17.7773 56.4336 17.6289 56.207 17.5039C55.9883 17.3789 55.7461 17.2852 55.4805 17.2227C55.2227 17.1523 54.9609 17.1172 54.6953 17.1172C54.2734 17.1172 53.8711 17.2031 53.4883 17.375C53.1055 17.5391 52.7695 17.7656 52.4805 18.0547C52.1992 18.3359 51.9727 18.6719 51.8008 19.0625C51.6289 19.4531 51.543 19.8711 51.543 20.3164C51.543 20.6914 51.6016 21.0195 51.7188 21.3008C51.8359 21.582 51.9961 21.8164 52.1992 22.0039C52.4023 22.1914 52.6367 22.332 52.9023 22.4258C53.168 22.5195 53.4531 22.5664 53.7578 22.5664C54.0156 22.5664 54.2773 22.5352 54.543 22.4727C54.8164 22.4023 55.0781 22.3008 55.3281 22.168C55.5781 22.0273 55.8125 21.8516 56.0312 21.6406Z"/><path fill="#201A0A" d="M63.918 13.8594H69.918L69.1797 17.0703H68.2305L69.0391 22.0039L72.0625 17.0703H71.0312L71.7695 13.8594H77.7695L77.0312 17.0703H75.9062L70.1406 26H66.1797L64.5273 17.0703H63.1797L63.918 13.8594Z"/><path fill="#201A0A" d="M81.0039 20.8438C81.0195 21.0312 81.0508 21.2109 81.0977 21.3828C81.1758 21.6797 81.3047 21.9414 81.4844 22.168C81.6719 22.3867 81.9141 22.5625 82.2109 22.6953C82.5078 22.8203 82.8672 22.8828 83.2891 22.8828C83.6016 22.8828 83.8867 22.8516 84.1445 22.7891C84.4102 22.7266 84.6602 22.6406 84.8945 22.5312C85.1289 22.4141 85.3516 22.2773 85.5625 22.1211C85.7812 21.9648 85.9961 21.793 86.207 21.6055L88.7852 23.8672C87.9961 24.7109 87.0859 25.332 86.0547 25.7305C85.0234 26.1211 83.9141 26.3164 82.7266 26.3164C81.9609 26.3164 81.2422 26.1914 80.5703 25.9414C79.8984 25.6914 79.3125 25.3359 78.8125 24.875C78.3125 24.4062 77.9141 23.8398 77.6172 23.1758C77.3281 22.5117 77.1836 21.7656 77.1836 20.9375C77.1836 19.8203 77.3828 18.8047 77.7812 17.8906C78.1875 16.9766 78.7305 16.1953 79.4102 15.5469C80.0898 14.8906 80.875 14.3867 81.7656 14.0352C82.6641 13.6758 83.6094 13.4961 84.6016 13.4961C85.3906 13.4961 86.1172 13.6367 86.7812 13.918C87.4453 14.1914 88.0156 14.5625 88.4922 15.0312C88.9766 15.4922 89.3516 16.0273 89.6172 16.6367C89.8906 17.2461 90.0273 17.8789 90.0273 18.5352C90.0273 18.6914 90.0195 18.8672 90.0039 19.0625C89.9883 19.2578 89.9648 19.4609 89.9336 19.6719C89.9023 19.875 89.8633 20.0781 89.8164 20.2812C89.7695 20.4844 89.7188 20.6719 89.6641 20.8438H81.0039ZM81.5078 18.0312C81.4766 18.0859 81.4492 18.1406 81.4258 18.1953H86.5C86.4844 17.9844 86.4141 17.7812 86.2891 17.5859C86.1719 17.3828 86.0117 17.2031 85.8086 17.0469C85.6133 16.8906 85.3789 16.7656 85.1055 16.6719C84.8398 16.5703 84.543 16.5195 84.2148 16.5195C83.8242 16.5195 83.4492 16.5781 83.0898 16.6953C82.7383 16.8125 82.4258 16.9844 82.1523 17.2109C81.8867 17.4297 81.6719 17.7031 81.5078 18.0312Z"/><path fill="#201A0A" d="M103.305 18.582H99.4844L99.7773 17.3633C99.5117 17.3633 99.2656 17.3906 99.0391 17.4453C98.8203 17.5 98.6055 17.582 98.3945 17.6914C98.1914 17.8008 97.9922 17.9375 97.7969 18.1016C97.6641 18.2109 97.5312 18.332 97.3984 18.4648L96.3906 22.7891H98.9336L98.1953 26H91.6445L93.707 17.0703H91.4688L92.2188 13.8594H98.4297L98.1953 14.9141C98.5156 14.625 98.8984 14.3828 99.3438 14.1875C99.8359 13.9688 100.414 13.8594 101.078 13.8594H104.406L103.305 18.582Z"/><path fill="#201A0A" d="M105.648 13.8594H111.812L111.625 14.8555V14.8438C111.977 14.5781 112.34 14.3516 112.715 14.1641C113.09 13.9766 113.477 13.832 113.875 13.7305C114.273 13.6211 114.684 13.5664 115.105 13.5664C115.785 13.5664 116.379 13.6797 116.887 13.9062C117.395 14.1328 117.801 14.457 118.105 14.8789C118.41 15.3008 118.602 15.8203 118.68 16.4375C118.766 17.0469 118.719 17.7383 118.539 18.5117L117.543 22.7891H119.758L119.02 26H112.797L114.309 19.4727C114.379 19.1758 114.398 18.9062 114.367 18.6641C114.344 18.4141 114.281 18.2031 114.18 18.0312C114.086 17.8516 113.953 17.7148 113.781 17.6211C113.617 17.5273 113.426 17.4805 113.207 17.4805C112.809 17.4805 112.316 17.6328 111.73 17.9375C111.426 18.0938 111.109 18.2969 110.781 18.5469L109.059 26H104.945L107.008 17.0703H104.898L105.648 13.8594Z"/></svg>